<svg xmlns="http://www.w3.org/2000/svg" width="16" height="16" viewBox="0 0 16 16">
  <g id="enter" transform="translate(0 -0.333)">
    <path id="Контур_6" data-name="Контур 6" d="M10.166,220H.5a.5.5,0,1,1,0-1h9.666a.5.5,0,1,1,0,1Zm0,0" transform="translate(0 -211.167)" fill="#3a3b46"/>
    <path id="Контур_7" data-name="Контур 7" d="M224.5,139.963a.5.5,0,0,1-.353-.854l2.313-2.313-2.313-2.313a.5.5,0,0,1,.707-.707l2.666,2.667a.5.5,0,0,1,0,.707l-2.666,2.666A.5.5,0,0,1,224.5,139.963Zm0,0" transform="translate(-216.604 -128.464)" fill="#3a3b46"/>
    <path id="Контур_8" data-name="Контур 8" d="M43.654,16.333a7.65,7.65,0,0,1-7.146-5.074.553.553,0,0,1,.3-.707.518.518,0,0,1,.679.308,6.607,6.607,0,0,0,6.172,4.381,6.782,6.782,0,0,0,6.631-6.909c0-1.783-1.927-4.865-1.927-4.865s-2.759-2.044-4.7-2.044A6.607,6.607,0,0,0,37.483,5.8a.518.518,0,0,1-.679.308.553.553,0,0,1-.3-.707A7.65,7.65,0,0,1,43.654.333a7.853,7.853,0,0,1,7.678,8,7.853,7.853,0,0,1-7.678,8Zm0,0" transform="translate(-35.332)" fill="#3a3b46"/>
  </g>
</svg>
